<?xml version="1.0" encoding="UTF-8"?>
<svg xmlns="http://www.w3.org/2000/svg" viewBox="0 0 330.83 59.98">
  <defs>
    <style>.a{fill:#1d1e1c;}.b{fill:red;}</style>
  </defs>
  <title>Recurso 3</title>
  <path class="a" d="M218.44,38.11c.1,7.55,5.59,13.21,12.86,13.21h18.12a4.21,4.21,0,0,0,0-8.4H231.3a4.69,4.69,0,0,1-4.89-5V34.25h20.06a4.21,4.21,0,0,0,0-8.4H226.41V23.07c0-3.22,2.19-5.83,4.89-5.83h18.09a4.09,4.09,0,0,0,4-4.17,4.1,4.1,0,0,0-4-4.23H231.3c-7.09,0-12.86,6.38-12.86,14.27Zm-124.65,0c.1,7.55,5.59,13.21,12.86,13.21h18.12a4.21,4.21,0,0,0,0-8.4H106.64a4.7,4.7,0,0,1-4.89-5V34.25h20.06a4.21,4.21,0,0,0,0-8.4H101.75V23.07c0-3.22,2.2-5.83,4.89-5.83h18.09a4.09,4.09,0,0,0,4-4.17,4.1,4.1,0,0,0-3.95-4.23H106.64c-7.09,0-12.86,6.38-12.86,14.27Zm-67.62-4a4.26,4.26,0,0,1,.12,8.5h-22a4.21,4.21,0,0,0,0,8.4h22c6.56,0,11.9-5.68,11.9-12.66s-5.39-12.64-12-12.64H11.9A4.11,4.11,0,0,1,8,21.47a4.32,4.32,0,0,1,1.17-3A3.92,3.92,0,0,1,12,17.23H34.08a4.1,4.1,0,0,0,4-4.2,4.1,4.1,0,0,0-4-4.2H12a11.65,11.65,0,0,0-8.52,3.7A12.9,12.9,0,0,0,0,21.47c0,7,5.34,12.67,11.9,12.67ZM77,42.92c-2.84,0-6.5-2.83-6.5-5.83V13a4,4,0,1,0-8,0V37.3c.13,8,7.7,14,14.47,14H88.39a4.21,4.21,0,0,0,0-8.4Zm57.3,4.26a4.09,4.09,0,0,0,4,4.18h0a4.1,4.1,0,0,0,4-4.22V27.49A10.51,10.51,0,0,1,153,17.24a10.72,10.72,0,0,1,7.63,3.11,10.29,10.29,0,0,1,3,7.33c0,.15,0,13.8,0,19.48a4,4,0,1,0,8,0V27.71a18.86,18.86,0,0,0-5.54-13.47A18.45,18.45,0,0,0,153,8.84,18.69,18.69,0,0,0,134.3,27.49ZM53.9,47V13a4,4,0,1,0-8,0V47a4,4,0,1,0,8,0m141.61,4C185,51,176.46,41.51,176.46,29.8A22.22,22.22,0,0,1,182,14.91a18.32,18.32,0,0,1,13.74-6.29h13.88a4.1,4.1,0,0,1,4,4.2,4.1,4.1,0,0,1-4,4.2H195.69a10.59,10.59,0,0,0-7.91,3.66,13.59,13.59,0,0,0-3.35,9.12c0,7.08,5,12.83,11.08,12.83h14.1a4.21,4.21,0,0,1,0,8.4Z"></path>
  <path class="b" d="M300.84,0a30,30,0,1,0,30,30,30,30,0,0,0-30-30m21.37,30A21.37,21.37,0,1,1,300.84,8.62,21.37,21.37,0,0,1,322.21,30"></path>
</svg>
