<svg xmlns="http://www.w3.org/2000/svg" xmlns:xlink="http://www.w3.org/1999/xlink" id="Capa_1" x="0px" y="0px" viewBox="0 0 505.3 209.3" style="enable-background:new 0 0 505.3 209.3;" xml:space="preserve"><style type="text/css">	.st0{fill:#FFFFFF;}</style><path class="st0" d="M323.6,104.3c0.1,10.1,7.5,17.7,17.2,17.7l24.2,0c2.9,0,5.3-2.6,5.3-5.6c0-3.1-2.4-5.6-5.3-5.6l-24.2,0  c-3.3,0-6.5-2.1-6.5-6.7v-4.9h26.8c2.9,0,5.3-2.5,5.3-5.6c0-3.1-2.4-5.6-5.3-5.6h-26.8v-3.7c0-4.3,2.9-7.8,6.5-7.8H365  c2.9,0,5.3-2.5,5.3-5.6c0-3.1-2.3-5.6-5.3-5.7h-24.2c-9.5,0-17.2,8.5-17.2,19.1V104.3z M156.8,104.3c0.1,10.1,7.5,17.7,17.2,17.7  l24.2,0c2.9,0,5.3-2.6,5.3-5.6c0-3.1-2.4-5.6-5.3-5.6l-24.2,0c-3.3,0-6.5-2.1-6.5-6.7v-4.9h26.8c2.9,0,5.3-2.5,5.3-5.6  c0-3.1-2.4-5.6-5.3-5.6h-26.8v-3.7c0-4.3,2.9-7.8,6.5-7.8h24.2c2.9,0,5.3-2.5,5.3-5.6c0-3.1-2.3-5.6-5.3-5.7H174  c-9.5,0-17.2,8.5-17.2,19.1L156.8,104.3z M66.4,99c3,0,5.4,2.5,5.4,5.7c0,3.1-2.4,5.7-5.3,5.7H37.2c-2.9,0-5.3,2.5-5.3,5.6  c0,3.1,2.4,5.6,5.3,5.6h29.4c8.8,0,15.9-7.6,15.9-16.9c0-9.3-7.2-16.9-16.1-16.9l-19,0c-2.9,0-5.3-2.6-5.3-5.7c0-1.5,0.6-2.9,1.6-4  c1-1.1,2.4-1.7,3.8-1.7l29.6,0c2.9,0,5.3-2.5,5.3-5.6c0-3.1-2.4-5.6-5.3-5.6H47.5c-4.3,0-8.4,1.8-11.4,4.9c-3,3.2-4.7,7.4-4.7,12  c0,9.3,7.1,16.9,15.9,16.9H66.4z M134.4,110.7c-3.8,0-8.7-3.8-8.7-7.8V70.8c0-3.1-2.4-5.6-5.3-5.6s-5.3,2.5-5.3,5.6v32.5  c0.2,10.8,10.3,18.8,19.4,18.8l15.2,0c2.9,0,5.3-2.6,5.3-5.6c0-3.1-2.4-5.6-5.3-5.6L134.4,110.7z M211,116.4c0,3.1,2.4,5.6,5.3,5.6  h0c2.9,0,5.3-2.5,5.3-5.6V90.1c0-7.6,6.4-13.7,14.3-13.7c3.9,0,7.5,1.5,10.2,4.2c2.6,2.6,4.1,6.1,4.1,9.8c0,0.2,0,18.5,0,26.1  c0,3.1,2.4,5.6,5.3,5.6c2.9,0,5.3-2.5,5.3-5.6v-26c0-6.9-2.6-13.3-7.4-18c-4.7-4.7-10.9-7.2-17.5-7.2c-13.8,0-25,11.2-25,25  L211,116.4z M103.5,116.2V70.7c0-3.1-2.4-5.6-5.3-5.6c-2.9,0-5.3,2.5-5.3,5.6v45.5c0,3.1,2.4,5.6,5.3,5.6  C101.1,121.8,103.5,119.3,103.5,116.2 M292.9,121.6c-14.1,0-25.5-12.7-25.5-28.4c0-7.5,2.6-14.6,7.4-19.9c4.9-5.4,11.4-8.4,18.4-8.4  l18.6,0c2.9,0,5.3,2.5,5.3,5.6c0,3.1-2.4,5.6-5.3,5.6l-18.6,0c-4,0-7.8,1.7-10.6,4.9c-2.9,3.2-4.5,7.6-4.5,12.2  c0,9.5,6.7,17.2,14.8,17.2h18.8h0c2.9,0,5.3,2.5,5.3,5.6c0,3.1-2.3,5.6-5.3,5.7L292.9,121.6z"></path><path class="st0" d="M433.8,53.3c-22.2,0-40.1,18-40.1,40.1c0,22.2,18,40.1,40.1,40.1c22.2,0,40.1-18,40.1-40.1  C473.9,71.3,455.9,53.3,433.8,53.3 M462.4,93.4c0,15.8-12.8,28.6-28.6,28.6c-15.8,0-28.6-12.8-28.6-28.6c0-15.8,12.8-28.6,28.6-28.6  C449.6,64.8,462.4,77.6,462.4,93.4z"></path></svg>